<?xml version="1.0" encoding="utf-8"?>
<!-- Generator: Adobe Illustrator 23.0.4, SVG Export Plug-In . SVG Version: 6.00 Build 0)  -->
<svg version="1.1" id="Layer_1" xmlns="http://www.w3.org/2000/svg" xmlns:xlink="http://www.w3.org/1999/xlink" x="0px" y="0px"
	 viewBox="0 0 167.7 167.9" style="enable-background:new 0 0 167.7 167.9;" xml:space="preserve">
<style type="text/css">
	.st0{fill:#E53000;}
</style>
<path class="st0" d="M67.2,1c-11.3,2.6-22.7,7.6-32,13.9C6.2,34.8-7,74.2,3.7,109c7.8,25.3,29.4,47,54.9,55.1
	c15.9,5.1,35.3,5.1,50.9,0c9.7-3.1,14.2-5.4,23.5-11.8c14.1-9.7,25.6-25.3,31.5-42.7c3-9.1,3.2-10.2,3.2-25.5
	c0-14-0.3-16.9-2.3-23.5c-5.2-16.5-16.1-32.8-28.6-42.7c-7.8-6.1-22-13.3-31.1-15.8C97.7-0.1,74.6-0.8,67.2,1z M105.7,9.6
	c13.4,4.2,22.1,9.5,32.5,20c7.4,7.3,10.5,11.3,13.7,17.5c6.9,13.5,8.8,21,8.8,36c0,18.6-3.4,30.1-13.2,44.5
	c-7.5,11.1-17.3,19.5-29.8,25.8c-13.9,6.9-35.9,9.2-51.5,5.3c-16.9-4.2-33.4-14.9-43.3-28.1c-8.5-11.3-14.2-25.2-15.2-36.7l-0.6-6.8
	l2.5,4.8c9.7,18.8,28.6,30.6,49.1,30.7c24.3,0,47.5-18.9,52.4-42.8c3.6-17.5-1.4-35.9-13.2-48.8c-9.6-10.6-21.5-16.2-36.2-17.3
	l-9-0.7l8.5-2.6c11.2-3.5,12.5-3.7,26-3.3C95.4,7.3,100.7,8.1,105.7,9.6z M74.3,23.5c16,6.1,28,21,30.3,37.6l0.7,5l-2.9-4.5
	c-6.6-10.2-14.5-15-25.8-15.8c-12.4-0.8-23.7,5.1-30,15.6c-10.5,17.5-3.3,39.5,15.7,48.1c2.4,1.1,6.4,2.1,8.9,2.1l4.5,0.1l-3.4,1.5
	c-9.2,3.9-24.3,2.5-36-3.4c-11.9-5.9-22.1-20.7-24.4-35.1c-3.5-23,11.6-46.2,34.6-52.6C53.7,20,67,20.7,74.3,23.5z M86.6,56
	c6,3.5,10.2,8.7,12.1,14.8c1.9,6.5,1.9,9.1-0.1,15.7c-3,10.4-13.4,18.1-24.5,18.1c-9.9,0-19.3-6.5-23.4-16.4
	c-1.8-4.3-1.9-13.8-0.1-18.8c2.4-6.7,9.7-13.6,16.6-15.7C72.8,52,81.6,53.1,86.6,56z"/>
</svg>
