<?xml version="1.0" encoding="utf-8"?>
<!-- Generator: Adobe Illustrator 23.0.4, SVG Export Plug-In . SVG Version: 6.00 Build 0)  -->
<svg version="1.1" id="Layer_1" xmlns="http://www.w3.org/2000/svg" xmlns:xlink="http://www.w3.org/1999/xlink" x="0px" y="0px"
	 viewBox="0 0 700.2 167.9" style="enable-background:new 0 0 700.2 167.9;" xml:space="preserve">
<style type="text/css">
	.st0{fill:#E53000;}
</style>
<g>
	<path class="st0" d="M67.2,1c-11.3,2.6-22.7,7.6-32,13.9C6.2,34.8-7,74.2,3.7,109c7.8,25.3,29.4,47,54.9,55.1
		c15.9,5.1,35.3,5.1,50.9,0c9.7-3.1,14.2-5.4,23.5-11.8c14.1-9.7,25.6-25.3,31.5-42.7c3-9.1,3.2-10.2,3.2-25.5
		c0-14-0.3-16.9-2.3-23.5c-5.2-16.5-16.1-32.8-28.6-42.7c-7.8-6.1-22-13.3-31.1-15.8C97.7-0.1,74.6-0.8,67.2,1z M105.7,9.6
		c13.4,4.2,22.1,9.5,32.5,20c7.4,7.3,10.5,11.3,13.7,17.5c6.9,13.5,8.8,21,8.8,36c0,18.6-3.4,30.1-13.2,44.5
		c-7.5,11.1-17.3,19.5-29.8,25.8c-13.9,6.9-35.9,9.2-51.5,5.3c-16.9-4.2-33.4-14.9-43.3-28.1c-8.5-11.3-14.2-25.2-15.2-36.7
		l-0.6-6.8l2.5,4.8c9.7,18.8,28.6,30.6,49.1,30.7c24.3,0,47.5-18.9,52.4-42.8c3.6-17.5-1.4-35.9-13.2-48.8
		c-9.6-10.6-21.5-16.2-36.2-17.3l-9-0.7l8.5-2.6c11.2-3.5,12.5-3.7,26-3.3C95.4,7.3,100.7,8.1,105.7,9.6z M74.3,23.5
		c16,6.1,28,21,30.3,37.6l0.7,5l-2.9-4.5c-6.6-10.2-14.5-15-25.8-15.8c-12.4-0.8-23.7,5.1-30,15.6c-10.5,17.5-3.3,39.5,15.7,48.1
		c2.4,1.1,6.4,2.1,8.9,2.1l4.5,0.1l-3.4,1.5c-9.2,3.9-24.3,2.5-36-3.4c-11.9-5.9-22.1-20.7-24.4-35.1c-3.5-23,11.6-46.2,34.6-52.6
		C53.7,20,67,20.7,74.3,23.5z M86.6,56c6,3.5,10.2,8.7,12.1,14.8c1.9,6.5,1.9,9.1-0.1,15.7c-3,10.4-13.4,18.1-24.5,18.1
		c-9.9,0-19.3-6.5-23.4-16.4c-1.8-4.3-1.9-13.8-0.1-18.8c2.4-6.7,9.7-13.6,16.6-15.7C72.8,52,81.6,53.1,86.6,56z"/>
	<path class="st0" d="M218,31.3c-0.2,0.5-0.1,23.5,0.2,51.3l0.5,50.5l6.8,0.3l6.7,0.3v-15.6c0-8.5,0.3-15.5,0.8-15.5
		c0.4,0,7.7,7,16.2,15.5l15.5,15.5h6.7c5.7,0,6.8-0.3,6.8-1.7c0-0.9-7-8.4-15.6-16.6l-15.6-15l13.1-13.1
		c7.2-7.2,13.1-13.9,13.1-14.9c0-1.5-1-1.7-7.2-1.6h-7.3l-13,13.9l-13,13.9l-0.3-32.7c-0.2-29.3-0.4-32.8-1.9-34
		C228.7,30.5,218.5,30.1,218,31.3z"/>
	<path class="st0" d="M379.6,50.8c-0.5,0.7-1.8,3.3-3,5.8c-2.7,5.7-8.8,13.7-13.7,18c-2.9,2.5-3.7,3.9-3.5,5.9
		c0.3,2.3,0.8,2.6,5,2.9l4.6,0.3l0.4,19.2c0.4,22.7,1.2,25.6,8.8,29.5c3.8,2,5.6,2.3,11.2,1.9c3.8-0.2,7.8-1.1,9.2-2
		c2.3-1.6,2.4-1.8,1.2-6.4l-1.3-4.8l-5.5,0.3c-4.8,0.3-5.9,0-7.7-1.9c-2-2.1-2.1-3.4-2.1-19.1V83.6h7.5c7,0,7.5-0.1,8.1-2.3
		c0.3-1.3,0.4-4.1,0.2-6.3l-0.3-3.9l-7.7-0.3l-7.7-0.3L383,60.4C382.7,50.6,381.6,47.5,379.6,50.8z"/>
	<path class="st0" d="M306.5,71.6c-7.6,2-13.3,4.5-13.3,5.9c0,1,4,10.1,4.4,10.1c0.2,0,3.4-1.1,7.1-2.6c8.3-3.1,18.2-4.2,22.4-2.5
		c2.9,1.3,5.7,5.9,4.9,8.2c-0.2,0.7-4.3,2-9.2,3c-18.5,3.7-27,7.9-30.6,14.8c-2.2,4.4-2.6,10.4-0.9,14.8c4.1,11,22,14.7,36.1,7.4
		l5.8-2.9l1.2,2.6c1.2,2.4,1.9,2.7,6.8,2.7s5.5-0.2,5.2-2c-0.1-1.1-0.5-11.8-0.9-23.9c-0.6-20.9-0.7-22.1-3.2-27
		c-2.1-4.2-3.6-5.6-8-7.9c-4.6-2.3-6.7-2.7-13-2.6C317.1,69.7,310.5,70.6,306.5,71.6z M332.2,110.6v7l-5.1,2.6
		c-9.6,4.8-21.2,4.2-22.5-1.3c-1.5-5.9,3.7-9.9,17.4-13.3C332.9,103,332.2,102.6,332.2,110.6z"/>
	<path class="st0" d="M430.2,71.1c-7.3,1.8-15,5.2-15,6.5c0,0.9,3.6,8.7,4.5,9.8c0.1,0.1,3.3-0.9,7-2.3c12.7-4.8,23.6-4.4,26.5,0.9
		c2.4,4.6,1.2,5.8-8.3,7.7c-18.5,3.7-27.1,8-30.7,15.3c-5.1,10.5-0.4,21,10.9,24.3c7.5,2.1,16.8,1.2,24-2.4c3.1-1.6,5.9-3,6.3-3.1
		c0.5-0.2,0.8,0.5,0.8,1.6c0,3.1,2.4,4.3,7.7,4c4.6-0.3,4.8-0.4,4.6-3.3c-0.1-1.7-0.5-13-1-25.2l-0.8-22.1l-3-4.3
		c-4.4-6.2-9.2-8.4-19.5-8.6C439.5,69.8,433.2,70.3,430.2,71.1z M454,110.8l-0.3,7.2l-4.9,2.4c-2.9,1.5-7.4,2.7-11,2.9
		c-5.2,0.4-6.5,0.2-8.8-1.7c-4.7-3.7-3.3-8.7,3.2-12c3.6-1.8,17.3-5.7,20.8-5.9C454,103.6,454.2,105.4,454,110.8z"/>
	<path class="st0" d="M509,71c-2,0.7-5.2,2.2-7,3.3l-3.4,2l-1.7-2.8c-1.5-2.6-2.1-2.9-7.2-2.9h-5.5v31.5v31.6l6.8-0.3l6.7-0.3
		l0.3-21.7l0.2-21.7l3.5-2.7c9.7-7.4,22.7-7,27.5,0.8c1.8,3,2,5,2,22.6c0,11.4,0.4,20.1,1,21.3c0.9,1.6,2.2,1.9,7.3,1.9h6.2
		l-0.3-21.7c-0.3-24.9-1.1-28.9-7-34.6c-5.4-5.3-11.4-7.7-19.2-7.6C515.6,69.7,511,70.3,509,71z"/>
	<path class="st0" d="M578.6,71.6c-7.1,2.8-13.7,8.9-17.1,15.8c-2.4,5-2.8,6.8-2.8,14.7c0,7.5,0.4,9.8,2.5,14
		c7.4,15.1,25.8,22.4,41.5,16.4c8.1-3,16.4-11.3,19.1-18.9c2.6-7.7,2.4-18-0.5-24.5c-2.8-6.3-9.1-12.9-15.6-16.3
		C598.7,69.2,586,68.7,578.6,71.6z M601.4,85.5c8.3,5.3,11.2,16.5,6.7,25.9c-2.9,6-8.4,9.5-15.8,10c-17.4,1.3-27.5-19.1-15.9-32.1
		c4.5-5,8.3-6.7,14.9-6.7C595.7,82.6,597.7,83.2,601.4,85.5z"/>
	<path class="st0" d="M658.2,70.5c-9.4,2.9-18.7,11.6-21.6,20.4c-5.5,16.2,2.1,34,17.4,41c7,3.3,20.8,3.1,27.7-0.3
		c7.3-3.6,13.8-10.5,16.5-17.6c3.2-8.5,2.6-19.8-1.5-27.3c-6-10.9-16.7-17.2-29.3-17C663.7,69.7,659.6,70.1,658.2,70.5z M676,84
		c6.4,3.3,11.2,11.2,11.2,18.4c0,5.1-3.6,11.9-8.3,15.6c-3.5,2.8-4.5,3.1-11.2,3.1c-8.2,0-10.4-1.1-15.9-7.9
		c-2.8-3.4-3.1-4.4-3.1-11c0-8.5,2.4-13.1,9-17.1C662.4,82.2,671.6,81.7,676,84z"/>
</g>
</svg>
